# File created by Blade
# Date/Time:  Wed Jan 21 16:33:30 2015
# Frame Rate: 120.000 fps
#------------------------------------------------------
:FULLY-SPECIFIED
:DEGREES
365
root 27.172419 4.004026 -23.994771 -61.562854 92.914365 6.211826
Spine 69.555451 3.963247 2.667086
Head 16.339518 -1.136030 2.422170
LeftShoulder 3.321523 -14.216504 15.343561
LeftArm -26.869531 38.402630 -101.818480
LeftForeArm 23.304630 -0.000000 49.858252
LeftHand 1.118329 -0.000000 54.360766
LeftHandThumb1 -26.253704 0.000000 33.147579
RightShoulder 3.144967 -22.730975 -12.904287
RightArm 14.936085 -36.103916 71.182766
RightForeArm -31.929153 -0.000000 47.204941
RightHand -3.667603 -0.000000 -51.832392
RightHandThumb1 -24.326973 -0.000000 -32.862282
LeftUpLeg -79.526721 -0.651734 -8.840671
LeftLeg 131.503932 -0.000000 -0.000000
LeftFoot 1.152349 32.607528 -0.540484
LeftToeBase 22.894940 -0.000000 -0.000000
RightUpLeg -81.972851 0.696593 10.663942
RightLeg 141.390445 -0.000000 -0.000000
RightFoot -8.027259 -33.759856 0.661393
RightToeBase 7.500722 -0.000000 -0.000000
366
root 27.143445 4.009759 -24.002900 -60.522420 92.987581 7.834268
Spine 69.220473 3.930353 2.713057
Head 17.151952 -1.318520 2.490237
LeftShoulder 3.183590 -14.043436 15.249076
LeftArm -26.974999 38.961525 -101.587777
LeftForeArm 23.160302 -0.000000 50.585841
LeftHand 0.716404 -0.000000 53.166299
LeftHandThumb1 -26.253704 0.000000 33.147579
RightShoulder 3.012018 -22.937220 -12.770683
RightArm 14.691723 -35.896301 71.133106
RightForeArm -32.165887 -0.000000 47.851034
RightHand -4.000621 -0.000000 -50.566558
RightHandThumb1 -24.326973 -0.000000 -32.862282
LeftUpLeg -79.000851 -0.686292 -8.880053
LeftLeg 131.344869 -0.000000 -0.000000
LeftFoot 1.715402 32.614684 -0.379165
LeftToeBase 22.929794 -0.000000 -0.000000
RightUpLeg -81.329126 0.410316 10.494634
RightLeg 141.160734 -0.000000 -0.000000
RightFoot -7.809837 -33.693962 0.562432
RightToeBase 10.889013 -0.000000 -0.000000
367
root 27.122561 4.011061 -24.011046 -59.902687 93.080088 8.958898
Spine 68.765281 3.930137 2.652736
Head 18.035479 -1.475013 2.634581
LeftShoulder 3.044919 -13.972727 15.136697
LeftArm -27.290735 39.440109 -101.481046
LeftForeArm 22.986077 -0.000000 51.201100
LeftHand 0.405418 -0.000000 52.278179
LeftHandThumb1 -26.253704 0.000000 33.147579
RightShoulder 2.924964 -23.181409 -12.545940
RightArm 14.469266 -35.673793 70.976384
RightForeArm -32.485237 0.000000 48.515074
RightHand -4.355379 -0.000000 -49.224795
RightHandThumb1 -24.326973 -0.000000 -32.862282
LeftUpLeg -78.562152 -0.727782 -8.936165
LeftLeg 131.188788 -0.000000 -0.000000
LeftFoot 2.284099 32.569638 -0.175037
LeftToeBase 22.798786 -0.000000 -0.000000
RightUpLeg -80.782489 0.187429 10.284403
RightLeg 140.903629 -0.000000 -0.000000
RightFoot -7.482164 -33.565414 0.770067
RightToeBase 12.384031 -0.000000 -0.000000
368
root 27.100307 4.012958 -24.020815 -59.117209 93.198441 10.297980
Spine 68.390744 3.928050 2.638052
Head 18.816748 -1.725269 2.761385
LeftShoulder 2.941754 -13.940708 15.100657
LeftArm -27.554122 39.945357 -101.460472
LeftForeArm 22.581712 -0.000000 51.763134
LeftHand 0.091358 -0.000000 51.525877
LeftHandThumb1 -26.253704 0.000000 33.147579
RightShoulder 2.804145 -23.402892 -12.284503
RightArm 14.070191 -35.343340 70.939781
RightForeArm -32.611206 0.000000 49.352134
RightHand -4.629245 -0.000000 -47.920536
RightHandThumb1 -24.326973 -0.000000 -32.862282
LeftUpLeg -78.067229 -0.775710 -9.005839
LeftLeg 130.987875 -0.000000 -0.000000
LeftFoot 2.848599 32.537512 0.086059
LeftToeBase 22.957395 -0.000000 -0.000000
RightUpLeg -80.160278 -0.042699 10.034219
RightLeg 140.611426 -0.000000 -0.000000
RightFoot -7.049585 -33.479476 0.303982
RightToeBase 14.388343 -0.000000 -0.000000
369
root 27.074412 4.009799 -24.033387 -57.685045 93.379701 12.269915
Spine 68.003078 3.855884 2.595480
Head 19.606628 -1.944763 2.841632
LeftShoulder 2.831109 -13.769506 15.153240
LeftArm -27.576673 40.411624 -101.346436
LeftForeArm 22.028702 -0.000000 52.335816
LeftHand -0.280566 -0.000000 50.479194
LeftHandThumb1 -26.253704 0.000000 33.147579
RightShoulder 2.689189 -23.646624 -12.023890
RightArm 13.675356 -34.978141 70.885800
RightForeArm -32.859215 -0.000000 50.226958
RightHand -4.908826 0.000000 -46.519113
RightHandThumb1 -24.326973 -0.000000 -32.862282
LeftUpLeg -77.631820 -0.793212 -9.165188
LeftLeg 130.737034 -0.000000 -0.000000
LeftFoot 3.478651 32.644756 0.300607
LeftToeBase 23.123571 -0.000000 -0.000000
RightUpLeg -79.557284 -0.323594 9.719301
RightLeg 140.284392 -0.000000 -0.000000
RightFoot -6.612650 -33.317626 -0.026971
RightToeBase 16.761710 -0.000000 -0.000000
370
root 27.046487 4.019378 -24.046712 -57.020470 93.631019 13.590820
Spine 67.770004 3.808733 2.529304
Head 20.337296 -2.132826 2.943419
LeftShoulder 2.876315 -13.795168 15.230577
LeftArm -27.747295 40.688789 -101.378205
LeftForeArm 21.760672 -0.000000 52.723462
LeftHand -0.693924 -0.000000 49.655457
LeftHandThumb1 -26.253704 0.000000 33.147579
RightShoulder 2.552729 -23.792915 -11.695390
RightArm 13.113198 -34.575191 70.884945
RightForeArm -33.103178 -0.000000 51.245767
RightHand -5.271325 -0.000000 -44.867941
RightHandThumb1 -24.326973 -0.000000 -32.862282
LeftUpLeg -76.951668 -0.877368 -9.346662
LeftLeg 130.432594 -0.000000 -0.000000
LeftFoot 4.053050 32.655551 0.678277
LeftToeBase 22.983976 -0.000000 -0.000000
RightUpLeg -78.807691 -0.638072 9.325917
RightLeg 139.956534 -0.000000 -0.000000
RightFoot -6.240795 -33.123456 -0.184097
RightToeBase 19.354607 -0.000000 -0.000000
371
root 27.036380 4.013084 -24.057999 -54.747564 93.742711 16.359241
Spine 67.276166 3.654520 2.624107
Head 21.176962 -2.236792 2.864979
LeftShoulder 2.877256 -13.763383 15.234505
LeftArm -27.972757 40.923204 -101.451156
LeftForeArm 21.352608 -0.000000 53.181421
LeftHand -1.191932 -0.000000 48.558815
LeftHandThumb1 -26.253704 0.000000 33.147579
RightShoulder 2.351485 -24.090239 -11.444595
RightArm 12.862658 -34.487494 70.582017
RightForeArm -33.038230 0.000000 52.101840
RightHand -5.579273 -0.000000 -43.572540
RightHandThumb1 -24.326973 -0.000000 -32.862282
LeftUpLeg -76.532120 -1.021278 -9.348556
LeftLeg 130.220829 -0.000000 -0.000000
LeftFoot 4.454204 32.713624 0.806928
LeftToeBase 23.233004 -0.000000 -0.000000
RightUpLeg -78.261736 -0.884222 9.086892
RightLeg 139.638068 -0.000000 -0.000000
RightFoot -5.895396 -32.839598 -0.330298
RightToeBase 20.893102 -0.000000 -0.000000
372
root 27.025568 4.015587 -24.065676 -52.212764 93.813561 19.455077
Spine 66.863488 3.451832 2.762472
Head 22.022183 -2.249021 2.683111
LeftShoulder 2.834801 -13.625872 15.205207
LeftArm -28.051564 41.212260 -101.365120
LeftForeArm 20.898638 -0.000000 53.684154
LeftHand -1.538007 -0.000000 47.272545
LeftHandThumb1 -26.253704 0.000000 33.147579
RightShoulder 2.150314 -24.342012 -11.226873
RightArm 12.634828 -34.442051 70.258416
RightForeArm -33.101909 0.000000 52.846959
RightHand -5.811424 -0.000000 -42.571690
RightHandThumb1 -24.326973 -0.000000 -32.862282
LeftUpLeg -75.973621 -1.198927 -9.236812
LeftLeg 130.013384 -0.000000 -0.000000
LeftFoot 4.714726 32.690883 1.030599
LeftToeBase 23.454595 -0.000000 -0.000000
RightUpLeg -77.599551 -1.149971 9.011085
RightLeg 139.281927 -0.000000 -0.000000
RightFoot -5.950833 -32.798941 0.213591
RightToeBase 22.411602 -0.000000 -0.000000
373
root 27.004690 4.026040 -24.082980 -50.773350 94.082384 21.592903
Spine 66.673265 3.219751 2.764907
Head 22.679029 -2.251381 2.540656
LeftShoulder 2.901315 -13.750225 15.202509
LeftArm -28.400808 41.427623 -101.406850
LeftForeArm 20.497985 -0.000000 54.346794
LeftHand -2.150673 -0.000000 45.872868
LeftHandThumb1 -26.253704 0.000000 33.147579
RightShoulder 1.890165 -24.515661 -11.067484
RightArm 12.549774 -34.475664 69.999514
RightForeArm -33.008006 -0.000000 53.380313
RightHand -5.869601 0.000000 -41.860681
RightHandThumb1 -24.326973 -0.000000 -32.862282
LeftUpLeg -75.247015 -1.320954 -9.393619
LeftLeg 129.675072 -0.000000 -0.000000
LeftFoot 5.015407 32.905691 0.984961
LeftToeBase 23.202495 -0.000000 -0.000000
RightUpLeg -76.808675 -1.509760 8.644087
RightLeg 138.972668 -0.000000 -0.000000
RightFoot -5.738762 -32.568402 0.286884
RightToeBase 22.528142 -0.000000 -0.000000
374
root 26.990773 4.032144 -24.102188 -48.646984 94.312963 24.281867
Spine 66.282024 2.924518 2.825826
Head 23.444601 -2.205752 2.330013
LeftShoulder 2.949960 -13.680531 14.983196
LeftArm -28.669847 41.793414 -101.180929
LeftForeArm 20.071615 -0.000000 55.158421
LeftHand -2.783297 -0.000000 44.392794
LeftHandThumb1 -26.253704 0.000000 33.147579
RightShoulder 1.660250 -24.698408 -10.918187
RightArm 12.365464 -34.466401 69.799147
RightForeArm -32.881765 -0.000000 53.971345
RightHand -6.140686 -0.000000 -41.219102
RightHandThumb1 -24.326973 -0.000000 -32.862282
LeftUpLeg -74.672851 -1.495259 -9.451367
LeftLeg 129.383730 -0.000000 -0.000000
LeftFoot 5.184223 32.994814 1.025761
LeftToeBase 23.265810 -0.000000 -0.000000
RightUpLeg -76.151709 -1.838225 8.305817
RightLeg 138.633004 -0.000000 -0.000000
RightFoot -5.410155 -32.317911 0.021887
RightToeBase 22.134234 -0.000000 -0.000000
